<svg xmlns="http://www.w3.org/2000/svg" width="850" height="180" viewBox="0 0 850 180"><defs><style>.metric-icon{animation:count-glow 4s ease-in-out infinite}@keyframes count-glow{0%,100%{fill-opacity:0.7}50%{fill-opacity:1}}.star-bg{animation:twinkle-slow 7s ease-in-out infinite}.star-mid{animation:twinkle-mid 5s ease-in-out infinite}.star-fg{animation:twinkle-fast 3s ease-in-out infinite}@keyframes twinkle-slow{0%,100%{opacity:0.07}50%{opacity:0.30}}@keyframes twinkle-mid{0%,100%{opacity:0.12}50%{opacity:0.45}}@keyframes twinkle-fast{0%,100%{opacity:0.25}50%{opacity:0.65}}.shooting-star{opacity:0;animation:shoot linear infinite}@keyframes shoot{0%{opacity:0;transform:translate(0,0)}5%{opacity:0.9}15%{opacity:0.6;transform:translate(var(--shoot-tx),var(--shoot-ty))}20%{opacity:0;transform:translate(var(--shoot-tx),var(--shoot-ty))}100%{opacity:0}}</style><filter id="xdf01081" x="-30%" y="-30%" width="160%" height="160%"><feGaussianBlur stdDeviation="3"/></filter><radialGradient id="xe7d3b8d" cx="50%" cy="50%" r="80%"><stop offset="0%" stop-color="#0f1623" stop-opacity="0.85"/><stop offset="100%" stop-color="#080c14" stop-opacity="0"/></radialGradient><linearGradient id="x743a279" x1="0" y1="0" x2="1" y2="0"><stop offset="0%" stop-color="#fff" stop-opacity="0.85"/><stop offset="100%" stop-color="#fff" stop-opacity="0"/></linearGradient></defs><rect x="0" y="0" width="850" height="180" rx="14" ry="14" fill="#080c14"/><rect x="0" y="0" width="850" height="180" rx="14" ry="14" fill="url(#xe7d3b8d)"/><circle cx="506.0" cy="30.4" r="0.52" fill="#fff" opacity="0.28" class="star-bg" style="animation-duration:5.090s;animation-delay:2.409s"/><circle cx="195.7" cy="74.6" r="0.64" fill="#a78bfa" opacity="0.15" class="star-bg" style="animation-duration:8.148s;animation-delay:1.207s"/><circle cx="499.3" cy="138.5" r="0.39" fill="#fff" opacity="0.17" class="star-bg" style="animation-duration:6.445s;animation-delay:3.858s"/><circle cx="633.1" cy="73.6" r="0.41" fill="#00d4ff" opacity="0.16" class="star-bg" style="animation-duration:7.978s;animation-delay:2.918s"/><circle cx="498.8" cy="22.0" r="0.55" fill="#fff" opacity="0.12" class="star-bg" style="animation-duration:8.446s;animation-delay:2.326s"/><circle cx="336.2" cy="139.2" r="0.52" fill="#fff" opacity="0.16" class="star-bg" style="animation-duration:7.597s;animation-delay:0.901s"/><circle cx="518.4" cy="90.7" r="0.86" fill="#fff" opacity="0.09" class="star-bg" style="animation-duration:6.681s;animation-delay:3.322s"/><circle cx="391.3" cy="145.4" r="0.58" fill="#00d4ff" opacity="0.10" class="star-bg" style="animation-duration:6.197s;animation-delay:5.135s"/><circle cx="334.7" cy="28.0" r="0.62" fill="#a78bfa" opacity="0.28" class="star-bg" style="animation-duration:7.214s;animation-delay:4.360s"/><circle cx="636.6" cy="161.3" r="0.83" fill="#a78bfa" opacity="0.13" class="star-bg" style="animation-duration:8.436s;animation-delay:0.073s"/><circle cx="461.9" cy="30.6" r="0.58" fill="#fff" opacity="0.26" class="star-bg" style="animation-duration:8.664s;animation-delay:2.960s"/><circle cx="210.7" cy="149.7" r="0.59" fill="#ffb020" opacity="0.10" class="star-bg" style="animation-duration:5.013s;animation-delay:0.031s"/><circle cx="431.0" cy="22.4" r="0.78" fill="#ffb020" opacity="0.28" class="star-bg" style="animation-duration:8.296s;animation-delay:5.321s"/><circle cx="825.0" cy="18.8" r="0.45" fill="#ffb020" opacity="0.17" class="star-bg" style="animation-duration:6.623s;animation-delay:1.799s"/><circle cx="603.7" cy="163.1" r="0.32" fill="#ffb020" opacity="0.17" class="star-bg" style="animation-duration:7.602s;animation-delay:4.898s"/><circle cx="682.5" cy="73.3" r="0.22" fill="#ffb020" opacity="0.17" class="star-bg" style="animation-duration:6.356s;animation-delay:3.626s"/><circle cx="752.2" cy="114.2" r="0.44" fill="#a78bfa" opacity="0.21" class="star-bg" style="animation-duration:8.299s;animation-delay:3.780s"/><circle cx="93.5" cy="146.7" r="0.34" fill="#fff" opacity="0.22" class="star-bg" style="animation-duration:5.400s;animation-delay:1.501s"/><circle cx="53.0" cy="112.4" r="0.89" fill="#fff" opacity="0.16" class="star-bg" style="animation-duration:6.488s;animation-delay:1.279s"/><circle cx="90.3" cy="163.4" r="0.69" fill="#fff" opacity="0.26" class="star-bg" style="animation-duration:8.542s;animation-delay:5.059s"/><circle cx="533.1" cy="104.1" r="0.35" fill="#fff" opacity="0.13" class="star-bg" style="animation-duration:6.929s;animation-delay:3.870s"/><circle cx="504.7" cy="144.0" r="0.77" fill="#a78bfa" opacity="0.10" class="star-bg" style="animation-duration:8.455s;animation-delay:7.324s"/><circle cx="706.3" cy="156.3" r="0.60" fill="#fff" opacity="0.12" class="star-bg" style="animation-duration:6.455s;animation-delay:0.766s"/><circle cx="259.4" cy="77.9" r="0.79" fill="#fff" opacity="0.15" class="star-bg" style="animation-duration:7.639s;animation-delay:2.142s"/><circle cx="839.8" cy="169.4" r="0.79" fill="#fff" opacity="0.23" class="star-bg" style="animation-duration:7.104s;animation-delay:0.318s"/><circle cx="750.6" cy="138.1" r="0.53" fill="#fff" opacity="0.12" class="star-bg" style="animation-duration:7.346s;animation-delay:2.027s"/><circle cx="133.8" cy="163.1" r="0.84" fill="#fff" opacity="0.14" class="star-bg" style="animation-duration:6.399s;animation-delay:3.346s"/><circle cx="805.1" cy="10.4" r="0.47" fill="#fff" opacity="0.17" class="star-bg" style="animation-duration:6.198s;animation-delay:3.627s"/><circle cx="573.1" cy="85.5" r="0.67" fill="#ffb020" opacity="0.21" class="star-bg" style="animation-duration:5.089s;animation-delay:2.273s"/><circle cx="48.7" cy="101.2" r="0.58" fill="#ffb020" opacity="0.24" class="star-bg" style="animation-duration:5.738s;animation-delay:2.008s"/><circle cx="39.3" cy="82.0" r="0.36" fill="#ffb020" opacity="0.10" class="star-bg" style="animation-duration:6.772s;animation-delay:4.346s"/><circle cx="284.5" cy="68.9" r="0.63" fill="#fff" opacity="0.12" class="star-bg" style="animation-duration:7.542s;animation-delay:3.650s"/><circle cx="678.4" cy="114.9" r="0.38" fill="#fff" opacity="0.26" class="star-bg" style="animation-duration:8.879s;animation-delay:6.532s"/><circle cx="740.1" cy="84.0" r="0.76" fill="#a78bfa" opacity="0.14" class="star-bg" style="animation-duration:5.013s;animation-delay:4.053s"/><circle cx="371.6" cy="149.1" r="0.21" fill="#fff" opacity="0.30" class="star-bg" style="animation-duration:6.785s;animation-delay:4.838s"/><circle cx="253.2" cy="132.5" r="0.43" fill="#fff" opacity="0.10" class="star-bg" style="animation-duration:8.052s;animation-delay:3.214s"/><circle cx="531.9" cy="149.7" r="0.50" fill="#fff" opacity="0.17" class="star-bg" style="animation-duration:7.703s;animation-delay:4.119s"/><circle cx="216.4" cy="107.8" r="0.83" fill="#a78bfa" opacity="0.21" class="star-bg" style="animation-duration:8.075s;animation-delay:6.229s"/><circle cx="798.8" cy="135.8" r="0.77" fill="#fff" opacity="0.19" class="star-bg" style="animation-duration:6.135s;animation-delay:4.813s"/><circle cx="777.3" cy="11.1" r="0.29" fill="#00d4ff" opacity="0.27" class="star-bg" style="animation-duration:7.062s;animation-delay:1.024s"/><circle cx="17.9" cy="135.2" r="0.51" fill="#fff" opacity="0.20" class="star-mid" style="animation-duration:4.823s;animation-delay:1.595s"/><circle cx="458.0" cy="36.1" r="1.08" fill="#ffb020" opacity="0.18" class="star-mid" style="animation-duration:4.090s;animation-delay:0.520s"/><circle cx="159.0" cy="145.3" r="0.46" fill="#fff" opacity="0.29" class="star-mid" style="animation-duration:4.098s;animation-delay:2.049s"/><circle cx="723.8" cy="143.9" r="1.16" fill="#ffb020" opacity="0.17" class="star-mid" style="animation-duration:5.097s;animation-delay:4.771s"/><circle cx="537.6" cy="50.6" r="0.53" fill="#fff" opacity="0.39" class="star-mid" style="animation-duration:4.048s;animation-delay:0.528s"/><circle cx="575.9" cy="119.3" r="1.00" fill="#fff" opacity="0.14" class="star-mid" style="animation-duration:6.422s;animation-delay:0.613s"/><circle cx="111.4" cy="108.6" r="0.69" fill="#00d4ff" opacity="0.25" class="star-mid" style="animation-duration:6.828s;animation-delay:3.355s"/><circle cx="668.0" cy="107.2" r="0.51" fill="#00d4ff" opacity="0.19" class="star-mid" style="animation-duration:4.114s;animation-delay:0.143s"/><circle cx="304.9" cy="46.7" r="1.13" fill="#00d4ff" opacity="0.27" class="star-mid" style="animation-duration:3.754s;animation-delay:2.173s"/><circle cx="479.5" cy="82.3" r="0.57" fill="#fff" opacity="0.18" class="star-mid" style="animation-duration:3.685s;animation-delay:0.669s"/><circle cx="357.3" cy="20.6" r="0.61" fill="#fff" opacity="0.38" class="star-mid" style="animation-duration:3.718s;animation-delay:2.193s"/><circle cx="497.2" cy="49.0" r="0.94" fill="#ffb020" opacity="0.27" class="star-mid" style="animation-duration:4.097s;animation-delay:3.809s"/><circle cx="802.3" cy="100.1" r="0.68" fill="#ffb020" opacity="0.30" class="star-mid" style="animation-duration:4.383s;animation-delay:4.108s"/><circle cx="288.9" cy="79.7" r="0.91" fill="#00d4ff" opacity="0.25" class="star-mid" style="animation-duration:4.522s;animation-delay:2.329s"/><circle cx="524.3" cy="104.8" r="1.06" fill="#fff" opacity="0.43" class="star-mid" style="animation-duration:4.823s;animation-delay:2.414s"/><circle cx="225.8" cy="111.0" r="1.02" fill="#a78bfa" opacity="0.42" class="star-mid" style="animation-duration:5.671s;animation-delay:4.820s"/><circle cx="806.9" cy="85.2" r="0.71" fill="#a78bfa" opacity="0.40" class="star-mid" style="animation-duration:3.977s;animation-delay:1.014s"/><circle cx="549.1" cy="84.2" r="0.45" fill="#fff" opacity="0.30" class="star-mid" style="animation-duration:6.483s;animation-delay:3.766s"/><circle cx="40.7" cy="155.7" r="1.13" fill="#00d4ff" opacity="0.28" class="star-mid" style="animation-duration:4.962s;animation-delay:2.967s"/><circle cx="471.3" cy="89.2" r="0.87" fill="#fff" opacity="0.36" class="star-mid" style="animation-duration:6.074s;animation-delay:0.186s"/><circle cx="660.7" cy="35.1" r="0.64" fill="#ffb020" opacity="0.20" class="star-mid" style="animation-duration:4.100s;animation-delay:2.565s"/><circle cx="206.5" cy="62.8" r="0.74" fill="#fff" opacity="0.26" class="star-mid" style="animation-duration:4.151s;animation-delay:2.446s"/><circle cx="16.8" cy="119.6" r="0.41" fill="#ffb020" opacity="0.26" class="star-mid" style="animation-duration:3.627s;animation-delay:3.591s"/><circle cx="205.4" cy="92.4" r="0.40" fill="#a78bfa" opacity="0.14" class="star-mid" style="animation-duration:4.471s;animation-delay:3.313s"/><circle cx="36.0" cy="120.6" r="0.68" fill="#fff" opacity="0.39" class="star-mid" style="animation-duration:6.485s;animation-delay:1.871s"/><circle cx="354.1" cy="21.0" r="1.28" fill="#ffb020" opacity="0.29" class="star-fg" style="animation-duration:3.615s;animation-delay:3.290s"/><circle cx="78.4" cy="140.0" r="1.00" fill="#ffb020" opacity="0.36" class="star-fg" style="animation-duration:4.146s;animation-delay:3.406s"/><circle cx="37.7" cy="64.1" r="1.10" fill="#a78bfa" opacity="0.42" class="star-fg" style="animation-duration:3.417s;animation-delay:0.570s"/><circle cx="783.5" cy="47.9" r="1.40" fill="#a78bfa" opacity="0.63" class="star-fg" style="animation-duration:2.306s;animation-delay:0.232s"/><circle cx="802.3" cy="49.9" r="0.74" fill="#ffb020" opacity="0.55" class="star-fg" style="animation-duration:2.528s;animation-delay:2.434s"/><circle cx="694.1" cy="17.5" r="1.18" fill="#ffb020" opacity="0.27" class="star-fg" style="animation-duration:3.218s;animation-delay:3.035s"/><circle cx="199.9" cy="74.3" r="1.07" fill="#a78bfa" opacity="0.35" class="star-fg" style="animation-duration:2.245s;animation-delay:0.879s"/><circle cx="252.6" cy="32.1" r="0.90" fill="#fff" opacity="0.42" class="star-fg" style="animation-duration:4.210s;animation-delay:3.925s"/><circle cx="549.7" cy="128.1" r="1.17" fill="#00d4ff" opacity="0.34" class="star-fg" style="animation-duration:3.232s;animation-delay:0.251s"/><circle cx="201.7" cy="143.6" r="1.13" fill="#00d4ff" opacity="0.49" class="star-fg" style="animation-duration:2.375s;animation-delay:0.514s"/><line x1="680" y1="46" x2="698" y2="51" stroke="url(#x743a279)" stroke-width="1.1" stroke-linecap="round" class="shooting-star" style="animation-delay:22.22s;--shoot-tx:87px;--shoot-ty:48px;animation-duration:2.9s"/><line x1="505" y1="22" x2="523" y2="27" stroke="url(#x743a279)" stroke-width="1.1" stroke-linecap="round" class="shooting-star" style="animation-delay:11.96s;--shoot-tx:100px;--shoot-ty:42px;animation-duration:2.67s"/><line x1="653" y1="6" x2="671" y2="11" stroke="url(#x743a279)" stroke-width="1.1" stroke-linecap="round" class="shooting-star" style="animation-delay:50.95s;--shoot-tx:113px;--shoot-ty:51px;animation-duration:2.7s"/><line x1="170.0" y1="55" x2="170.0" y2="155" stroke="#1a2332" stroke-width="1" opacity="0.5"/><line x1="340.0" y1="55" x2="340.0" y2="155" stroke="#1a2332" stroke-width="1" opacity="0.5"/><line x1="510.0" y1="55" x2="510.0" y2="155" stroke="#1a2332" stroke-width="1" opacity="0.5"/><line x1="680.0" y1="55" x2="680.0" y2="155" stroke="#1a2332" stroke-width="1" opacity="0.5"/><g class="metric-cell" transform="translate(85.0,95)"><g transform="translate(-8,-30)"><svg viewBox="0 0 16 16" width="16" height="16" fill="#00d4ff" class="metric-icon" style="animation-delay:0.0s"><path d="M8 1a7 7 0 1 0 0 14A7 7 0 0 0 8 1zm0 2.5a4.5 4.5 0 0 1 4.473 4H14.5a.5.5 0 0 1 0 1h-2.027A4.5 4.5 0 0 1 8 12.5a4.5 4.5 0 0 1-4.473-4H1.5a.5.5 0 0 1 0-1h2.027A4.5 4.5 0 0 1 8 3.5zm0 1.5a3 3 0 1 0 0 6 3 3 0 0 0 0-6z"/></svg></g><text x="0" y="2" text-anchor="middle" fill="#00d4ff" font-size="28" font-weight="bold" font-family="sans-serif" opacity="0.35" filter="url(#xdf01081)">541</text><text x="0" y="2" text-anchor="middle" fill="#f1f5f9" font-size="28" font-weight="bold" font-family="sans-serif">541</text><text x="0" y="20" text-anchor="middle" fill="#64748b" font-size="11" font-family="monospace" letter-spacing="1">Commits</text></g><g class="metric-cell" transform="translate(255.0,95)"><g transform="translate(-8,-30)"><svg viewBox="0 0 16 16" width="16" height="16" fill="#ffb020" class="metric-icon" style="animation-delay:0.3s"><path d="M8 .25a.75.75 0 0 1 .673.418l1.882 3.815 4.21.612a.75.75 0 0 1 .416 1.279l-3.046 2.97.719 4.192a.75.75 0 0 1-1.088.791L8 12.347l-3.766 1.98a.75.75 0 0 1-1.088-.79l.72-4.194L.818 6.374a.75.75 0 0 1 .416-1.28l4.21-.611L7.327.668A.75.75 0 0 1 8 .25z"/></svg></g><text x="0" y="2" text-anchor="middle" fill="#ffb020" font-size="28" font-weight="bold" font-family="sans-serif" opacity="0.35" filter="url(#xdf01081)">213</text><text x="0" y="2" text-anchor="middle" fill="#f1f5f9" font-size="28" font-weight="bold" font-family="sans-serif">213</text><text x="0" y="20" text-anchor="middle" fill="#64748b" font-size="11" font-family="monospace" letter-spacing="1">Stars</text></g><g class="metric-cell" transform="translate(425.0,95)"><g transform="translate(-8,-30)"><svg viewBox="0 0 16 16" width="16" height="16" fill="#a78bfa" class="metric-icon" style="animation-delay:0.6s"><path d="M5 3.254V3.25v.005a.75.75 0 1 1 0-.005zm6.5 8a.75.75 0 1 1 0 1.5.75.75 0 0 1 0-1.5zM5 12.75a.75.75 0 1 1 0 1.5.75.75 0 0 1 0-1.5zm-1.5.75a1.5 1.5 0 1 0 1.5 1.5v-8.5a1.5 1.5 0 1 0-1.5-1.5v8.5a1.5 1.5 0 0 0 0 0zm8.5-2.5a1.5 1.5 0 0 0-1.5 1.5 1.5 1.5 0 1 0 3 0v-3.133l.025-.05A3.252 3.252 0 0 0 11 5.25V3.5h1.25a.75.75 0 0 0 .53-1.28l-2-2a.75.75 0 0 0-1.06 0l-2 2A.75.75 0 0 0 8.25 3.5H9.5v1.75a1.75 1.75 0 0 0 1.75 1.75h.244a1.75 1.75 0 0 1 1.006.319V11a1.5 1.5 0 0 0-1.5-1.5z"/></svg></g><text x="0" y="2" text-anchor="middle" fill="#a78bfa" font-size="28" font-weight="bold" font-family="sans-serif" opacity="0.35" filter="url(#xdf01081)">3</text><text x="0" y="2" text-anchor="middle" fill="#f1f5f9" font-size="28" font-weight="bold" font-family="sans-serif">3</text><text x="0" y="20" text-anchor="middle" fill="#64748b" font-size="11" font-family="monospace" letter-spacing="1">PRs</text></g><g class="metric-cell" transform="translate(595.0,95)"><g transform="translate(-8,-30)"><svg viewBox="0 0 16 16" width="16" height="16" fill="#00d4ff" class="metric-icon" style="animation-delay:0.8999999999999999s"><path d="M8 9.5a1.5 1.5 0 1 0 0-3 1.5 1.5 0 0 0 0 3z"/><path d="M8 0a8 8 0 1 1 0 16A8 8 0 0 1 8 0zm0 1.5a6.5 6.5 0 1 0 0 13 6.5 6.5 0 0 0 0-13z"/></svg></g><text x="0" y="2" text-anchor="middle" fill="#00d4ff" font-size="28" font-weight="bold" font-family="sans-serif" opacity="0.35" filter="url(#xdf01081)">5</text><text x="0" y="2" text-anchor="middle" fill="#f1f5f9" font-size="28" font-weight="bold" font-family="sans-serif">5</text><text x="0" y="20" text-anchor="middle" fill="#64748b" font-size="11" font-family="monospace" letter-spacing="1">Issues</text></g><g class="metric-cell" transform="translate(765.0,95)"><g transform="translate(-8,-30)"><svg viewBox="0 0 16 16" width="16" height="16" fill="#a78bfa" class="metric-icon" style="animation-delay:1.2s"><path d="M2 2.5A2.5 2.5 0 0 1 4.5 0h8.75a.75.75 0 0 1 .75.75v12.5a.75.75 0 0 1-.75.75h-2.5a.75.75 0 0 1 0-1.5h1.75v-2h-8a1 1 0 0 0-.714 1.7.75.75 0 0 1-1.072 1.05A2.495 2.495 0 0 1 2 11.5zm10.5-1h-8a1 1 0 0 0-1 1v6.708A2.486 2.486 0 0 1 4.5 9h8zM5 12.25a.25.25 0 0 1 .25-.25h3.5a.25.25 0 0 1 .25.25v3.25a.25.25 0 0 1-.4.2l-1.45-1.087a.25.25 0 0 0-.3 0L5.4 15.7a.25.25 0 0 1-.4-.2z"/></svg></g><text x="0" y="2" text-anchor="middle" fill="#a78bfa" font-size="28" font-weight="bold" font-family="sans-serif" opacity="0.35" filter="url(#xdf01081)">32</text><text x="0" y="2" text-anchor="middle" fill="#f1f5f9" font-size="28" font-weight="bold" font-family="sans-serif">32</text><text x="0" y="20" text-anchor="middle" fill="#64748b" font-size="11" font-family="monospace" letter-spacing="1">Repos</text></g></svg>