<svg xmlns="http://www.w3.org/2000/svg" width="850" height="180" viewBox="0 0 850 180"><defs><style>.metric-icon{animation:count-glow 4s ease-in-out infinite}@keyframes count-glow{0%,100%{fill-opacity:0.7}50%{fill-opacity:1}}.star-bg{animation:twinkle-slow 7s ease-in-out infinite}.star-mid{animation:twinkle-mid 5s ease-in-out infinite}.star-fg{animation:twinkle-fast 3s ease-in-out infinite}@keyframes twinkle-slow{0%,100%{opacity:0.07}50%{opacity:0.30}}@keyframes twinkle-mid{0%,100%{opacity:0.12}50%{opacity:0.45}}@keyframes twinkle-fast{0%,100%{opacity:0.25}50%{opacity:0.65}}.shooting-star{opacity:0;animation:shoot linear infinite}@keyframes shoot{0%{opacity:0;transform:translate(0,0)}5%{opacity:0.9}15%{opacity:0.6;transform:translate(var(--shoot-tx),var(--shoot-ty))}20%{opacity:0;transform:translate(var(--shoot-tx),var(--shoot-ty))}100%{opacity:0}}</style><filter id="xdf01081" x="-30%" y="-30%" width="160%" height="160%"><feGaussianBlur stdDeviation="3"/></filter><radialGradient id="xe7d3b8d" cx="50%" cy="50%" r="80%"><stop offset="0%" stop-color="#0f1623" stop-opacity="0.85"/><stop offset="100%" stop-color="#080c14" stop-opacity="0"/></radialGradient><linearGradient id="x743a279" x1="0" y1="0" x2="1" y2="0"><stop offset="0%" stop-color="#fff" stop-opacity="0.85"/><stop offset="100%" stop-color="#fff" stop-opacity="0"/></linearGradient></defs><rect x="0" y="0" width="850" height="180" rx="14" ry="14" fill="#080c14"/><rect x="0" y="0" width="850" height="180" rx="14" ry="14" fill="url(#xe7d3b8d)"/><circle cx="788.5" cy="100.0" r="0.55" fill="#ffb020" opacity="0.24" class="star-bg" style="animation-duration:6.567s;animation-delay:5.985s"/><circle cx="781.9" cy="68.9" r="0.39" fill="#a78bfa" opacity="0.20" class="star-bg" style="animation-duration:6.291s;animation-delay:4.843s"/><circle cx="360.2" cy="100.0" r="0.82" fill="#fff" opacity="0.28" class="star-bg" style="animation-duration:8.220s;animation-delay:2.843s"/><circle cx="308.4" cy="156.1" r="0.51" fill="#ffb020" opacity="0.21" class="star-bg" style="animation-duration:6.209s;animation-delay:1.310s"/><circle cx="810.2" cy="47.0" r="0.48" fill="#a78bfa" opacity="0.11" class="star-bg" style="animation-duration:8.887s;animation-delay:1.718s"/><circle cx="475.6" cy="157.4" r="0.63" fill="#a78bfa" opacity="0.28" class="star-bg" style="animation-duration:8.788s;animation-delay:8.051s"/><circle cx="305.4" cy="47.2" r="0.29" fill="#ffb020" opacity="0.17" class="star-bg" style="animation-duration:5.355s;animation-delay:3.558s"/><circle cx="396.9" cy="46.3" r="0.85" fill="#a78bfa" opacity="0.25" class="star-bg" style="animation-duration:8.797s;animation-delay:7.710s"/><circle cx="113.8" cy="165.9" r="0.31" fill="#00d4ff" opacity="0.23" class="star-bg" style="animation-duration:5.264s;animation-delay:2.546s"/><circle cx="43.8" cy="140.5" r="0.85" fill="#ffb020" opacity="0.13" class="star-bg" style="animation-duration:7.125s;animation-delay:5.211s"/><circle cx="331.2" cy="120.4" r="0.20" fill="#a78bfa" opacity="0.27" class="star-bg" style="animation-duration:5.139s;animation-delay:3.177s"/><circle cx="579.4" cy="70.6" r="0.69" fill="#ffb020" opacity="0.16" class="star-bg" style="animation-duration:7.392s;animation-delay:6.299s"/><circle cx="625.1" cy="25.4" r="0.21" fill="#00d4ff" opacity="0.24" class="star-bg" style="animation-duration:7.528s;animation-delay:1.197s"/><circle cx="629.2" cy="84.1" r="0.61" fill="#ffb020" opacity="0.19" class="star-bg" style="animation-duration:6.777s;animation-delay:1.035s"/><circle cx="395.9" cy="95.9" r="0.90" fill="#fff" opacity="0.28" class="star-bg" style="animation-duration:5.123s;animation-delay:1.051s"/><circle cx="196.7" cy="23.4" r="0.61" fill="#00d4ff" opacity="0.16" class="star-bg" style="animation-duration:7.108s;animation-delay:5.527s"/><circle cx="712.4" cy="95.6" r="0.31" fill="#fff" opacity="0.07" class="star-bg" style="animation-duration:7.316s;animation-delay:2.589s"/><circle cx="225.5" cy="86.7" r="0.60" fill="#fff" opacity="0.27" class="star-bg" style="animation-duration:8.659s;animation-delay:4.637s"/><circle cx="336.3" cy="144.5" r="0.78" fill="#a78bfa" opacity="0.21" class="star-bg" style="animation-duration:5.004s;animation-delay:2.138s"/><circle cx="32.0" cy="27.3" r="0.88" fill="#fff" opacity="0.07" class="star-bg" style="animation-duration:8.428s;animation-delay:2.685s"/><circle cx="783.1" cy="128.4" r="0.87" fill="#fff" opacity="0.29" class="star-bg" style="animation-duration:7.742s;animation-delay:3.397s"/><circle cx="74.2" cy="66.3" r="0.22" fill="#fff" opacity="0.28" class="star-bg" style="animation-duration:6.380s;animation-delay:3.409s"/><circle cx="185.4" cy="102.7" r="0.67" fill="#a78bfa" opacity="0.22" class="star-bg" style="animation-duration:7.790s;animation-delay:2.373s"/><circle cx="424.1" cy="158.8" r="0.56" fill="#fff" opacity="0.24" class="star-bg" style="animation-duration:6.228s;animation-delay:3.900s"/><circle cx="230.2" cy="168.4" r="0.69" fill="#fff" opacity="0.27" class="star-bg" style="animation-duration:5.355s;animation-delay:2.020s"/><circle cx="553.5" cy="134.3" r="0.38" fill="#ffb020" opacity="0.26" class="star-bg" style="animation-duration:7.037s;animation-delay:3.600s"/><circle cx="369.7" cy="50.7" r="0.63" fill="#fff" opacity="0.22" class="star-bg" style="animation-duration:7.614s;animation-delay:5.435s"/><circle cx="33.2" cy="156.6" r="0.81" fill="#a78bfa" opacity="0.29" class="star-bg" style="animation-duration:6.146s;animation-delay:1.887s"/><circle cx="262.9" cy="61.8" r="0.47" fill="#fff" opacity="0.20" class="star-bg" style="animation-duration:5.283s;animation-delay:5.015s"/><circle cx="831.3" cy="42.9" r="0.30" fill="#ffb020" opacity="0.17" class="star-bg" style="animation-duration:7.731s;animation-delay:2.411s"/><circle cx="550.7" cy="110.8" r="0.59" fill="#00d4ff" opacity="0.16" class="star-bg" style="animation-duration:5.008s;animation-delay:2.162s"/><circle cx="605.0" cy="59.9" r="0.83" fill="#00d4ff" opacity="0.18" class="star-bg" style="animation-duration:6.191s;animation-delay:0.706s"/><circle cx="211.9" cy="128.8" r="0.27" fill="#fff" opacity="0.22" class="star-bg" style="animation-duration:6.931s;animation-delay:5.869s"/><circle cx="813.4" cy="47.4" r="0.37" fill="#00d4ff" opacity="0.08" class="star-bg" style="animation-duration:7.947s;animation-delay:1.079s"/><circle cx="482.4" cy="35.5" r="0.38" fill="#fff" opacity="0.28" class="star-bg" style="animation-duration:8.721s;animation-delay:6.726s"/><circle cx="815.9" cy="169.2" r="0.44" fill="#fff" opacity="0.20" class="star-bg" style="animation-duration:5.645s;animation-delay:1.785s"/><circle cx="548.5" cy="27.7" r="0.44" fill="#fff" opacity="0.27" class="star-bg" style="animation-duration:5.909s;animation-delay:0.337s"/><circle cx="160.7" cy="143.6" r="0.44" fill="#a78bfa" opacity="0.13" class="star-bg" style="animation-duration:7.637s;animation-delay:5.883s"/><circle cx="342.6" cy="62.2" r="0.71" fill="#fff" opacity="0.09" class="star-bg" style="animation-duration:8.298s;animation-delay:6.911s"/><circle cx="197.5" cy="103.3" r="0.40" fill="#00d4ff" opacity="0.15" class="star-bg" style="animation-duration:6.142s;animation-delay:5.841s"/><circle cx="117.5" cy="22.9" r="0.90" fill="#fff" opacity="0.40" class="star-mid" style="animation-duration:5.119s;animation-delay:1.600s"/><circle cx="212.8" cy="157.2" r="0.99" fill="#a78bfa" opacity="0.45" class="star-mid" style="animation-duration:4.340s;animation-delay:1.142s"/><circle cx="225.1" cy="119.2" r="0.71" fill="#a78bfa" opacity="0.14" class="star-mid" style="animation-duration:4.166s;animation-delay:3.876s"/><circle cx="291.7" cy="86.0" r="0.73" fill="#a78bfa" opacity="0.26" class="star-mid" style="animation-duration:5.614s;animation-delay:1.381s"/><circle cx="327.2" cy="10.9" r="1.11" fill="#fff" opacity="0.29" class="star-mid" style="animation-duration:4.431s;animation-delay:2.261s"/><circle cx="316.8" cy="16.2" r="0.52" fill="#a78bfa" opacity="0.16" class="star-mid" style="animation-duration:3.768s;animation-delay:2.310s"/><circle cx="20.3" cy="119.5" r="1.08" fill="#fff" opacity="0.44" class="star-mid" style="animation-duration:6.204s;animation-delay:3.605s"/><circle cx="256.9" cy="71.8" r="0.98" fill="#ffb020" opacity="0.26" class="star-mid" style="animation-duration:6.800s;animation-delay:5.843s"/><circle cx="594.7" cy="92.9" r="1.18" fill="#fff" opacity="0.15" class="star-mid" style="animation-duration:4.619s;animation-delay:0.841s"/><circle cx="411.6" cy="52.4" r="0.70" fill="#a78bfa" opacity="0.37" class="star-mid" style="animation-duration:3.656s;animation-delay:0.776s"/><circle cx="75.6" cy="46.6" r="0.55" fill="#a78bfa" opacity="0.39" class="star-mid" style="animation-duration:6.425s;animation-delay:2.071s"/><circle cx="336.7" cy="78.2" r="0.55" fill="#fff" opacity="0.23" class="star-mid" style="animation-duration:6.944s;animation-delay:0.310s"/><circle cx="768.5" cy="121.6" r="0.97" fill="#ffb020" opacity="0.36" class="star-mid" style="animation-duration:4.080s;animation-delay:0.716s"/><circle cx="644.6" cy="21.1" r="0.88" fill="#00d4ff" opacity="0.30" class="star-mid" style="animation-duration:4.709s;animation-delay:2.450s"/><circle cx="623.8" cy="125.1" r="0.71" fill="#fff" opacity="0.36" class="star-mid" style="animation-duration:5.078s;animation-delay:3.846s"/><circle cx="366.7" cy="132.1" r="0.48" fill="#a78bfa" opacity="0.20" class="star-mid" style="animation-duration:6.595s;animation-delay:4.546s"/><circle cx="544.7" cy="169.3" r="1.01" fill="#fff" opacity="0.29" class="star-mid" style="animation-duration:6.290s;animation-delay:3.689s"/><circle cx="242.2" cy="103.7" r="1.02" fill="#fff" opacity="0.14" class="star-mid" style="animation-duration:4.273s;animation-delay:1.102s"/><circle cx="218.8" cy="36.1" r="1.19" fill="#a78bfa" opacity="0.31" class="star-mid" style="animation-duration:6.952s;animation-delay:3.244s"/><circle cx="122.2" cy="14.3" r="0.81" fill="#fff" opacity="0.30" class="star-mid" style="animation-duration:5.463s;animation-delay:2.885s"/><circle cx="92.5" cy="169.5" r="0.50" fill="#ffb020" opacity="0.22" class="star-mid" style="animation-duration:3.989s;animation-delay:2.406s"/><circle cx="496.0" cy="134.7" r="0.70" fill="#fff" opacity="0.43" class="star-mid" style="animation-duration:4.863s;animation-delay:0.898s"/><circle cx="218.1" cy="109.0" r="1.19" fill="#fff" opacity="0.19" class="star-mid" style="animation-duration:4.883s;animation-delay:2.812s"/><circle cx="221.4" cy="90.5" r="1.13" fill="#ffb020" opacity="0.17" class="star-mid" style="animation-duration:4.829s;animation-delay:3.513s"/><circle cx="25.2" cy="31.5" r="0.71" fill="#00d4ff" opacity="0.23" class="star-mid" style="animation-duration:6.099s;animation-delay:0.761s"/><circle cx="135.4" cy="34.4" r="0.83" fill="#fff" opacity="0.46" class="star-fg" style="animation-duration:2.918s;animation-delay:1.917s"/><circle cx="565.3" cy="28.6" r="1.01" fill="#fff" opacity="0.26" class="star-fg" style="animation-duration:4.108s;animation-delay:0.710s"/><circle cx="447.6" cy="24.1" r="1.31" fill="#ffb020" opacity="0.42" class="star-fg" style="animation-duration:2.744s;animation-delay:1.260s"/><circle cx="621.4" cy="69.6" r="1.47" fill="#fff" opacity="0.60" class="star-fg" style="animation-duration:4.442s;animation-delay:2.927s"/><circle cx="494.2" cy="155.4" r="1.10" fill="#fff" opacity="0.44" class="star-fg" style="animation-duration:2.834s;animation-delay:0.182s"/><circle cx="300.9" cy="70.3" r="1.39" fill="#fff" opacity="0.30" class="star-fg" style="animation-duration:2.282s;animation-delay:0.996s"/><circle cx="662.2" cy="88.7" r="0.87" fill="#00d4ff" opacity="0.46" class="star-fg" style="animation-duration:3.143s;animation-delay:3.010s"/><circle cx="91.0" cy="154.8" r="0.86" fill="#a78bfa" opacity="0.29" class="star-fg" style="animation-duration:3.229s;animation-delay:0.495s"/><circle cx="636.2" cy="78.1" r="1.18" fill="#fff" opacity="0.49" class="star-fg" style="animation-duration:2.295s;animation-delay:0.155s"/><circle cx="77.0" cy="148.4" r="1.36" fill="#fff" opacity="0.54" class="star-fg" style="animation-duration:4.477s;animation-delay:1.046s"/><line x1="464" y1="42" x2="482" y2="47" stroke="url(#x743a279)" stroke-width="1.1" stroke-linecap="round" class="shooting-star" style="animation-delay:2.22s;--shoot-tx:112px;--shoot-ty:52px;animation-duration:2.73s"/><line x1="559" y1="82" x2="577" y2="87" stroke="url(#x743a279)" stroke-width="1.1" stroke-linecap="round" class="shooting-star" style="animation-delay:12.1s;--shoot-tx:89px;--shoot-ty:46px;animation-duration:2.98s"/><line x1="177" y1="75" x2="195" y2="80" stroke="url(#x743a279)" stroke-width="1.1" stroke-linecap="round" class="shooting-star" style="animation-delay:21.54s;--shoot-tx:106px;--shoot-ty:26px;animation-duration:2.05s"/><line x1="170.0" y1="55" x2="170.0" y2="155" stroke="#1a2332" stroke-width="1" opacity="0.5"/><line x1="340.0" y1="55" x2="340.0" y2="155" stroke="#1a2332" stroke-width="1" opacity="0.5"/><line x1="510.0" y1="55" x2="510.0" y2="155" stroke="#1a2332" stroke-width="1" opacity="0.5"/><line x1="680.0" y1="55" x2="680.0" y2="155" stroke="#1a2332" stroke-width="1" opacity="0.5"/><g class="metric-cell" transform="translate(85.0,95)"><g transform="translate(-8,-30)"><svg viewBox="0 0 16 16" width="16" height="16" fill="#00d4ff" class="metric-icon" style="animation-delay:0.0s"><path d="M8 1a7 7 0 1 0 0 14A7 7 0 0 0 8 1zm0 2.5a4.5 4.5 0 0 1 4.473 4H14.5a.5.5 0 0 1 0 1h-2.027A4.5 4.5 0 0 1 8 12.5a4.5 4.5 0 0 1-4.473-4H1.5a.5.5 0 0 1 0-1h2.027A4.5 4.5 0 0 1 8 3.5zm0 1.5a3 3 0 1 0 0 6 3 3 0 0 0 0-6z"/></svg></g><text x="0" y="2" text-anchor="middle" fill="#00d4ff" font-size="28" font-weight="bold" font-family="sans-serif" opacity="0.35" filter="url(#xdf01081)">0</text><text x="0" y="2" text-anchor="middle" fill="#f1f5f9" font-size="28" font-weight="bold" font-family="sans-serif">0</text><text x="0" y="20" text-anchor="middle" fill="#64748b" font-size="11" font-family="monospace" letter-spacing="1">Commits</text></g><g class="metric-cell" transform="translate(255.0,95)"><g transform="translate(-8,-30)"><svg viewBox="0 0 16 16" width="16" height="16" fill="#ffb020" class="metric-icon" style="animation-delay:0.3s"><path d="M8 .25a.75.75 0 0 1 .673.418l1.882 3.815 4.21.612a.75.75 0 0 1 .416 1.279l-3.046 2.97.719 4.192a.75.75 0 0 1-1.088.791L8 12.347l-3.766 1.98a.75.75 0 0 1-1.088-.79l.72-4.194L.818 6.374a.75.75 0 0 1 .416-1.28l4.21-.611L7.327.668A.75.75 0 0 1 8 .25z"/></svg></g><text x="0" y="2" text-anchor="middle" fill="#ffb020" font-size="28" font-weight="bold" font-family="sans-serif" opacity="0.35" filter="url(#xdf01081)">0</text><text x="0" y="2" text-anchor="middle" fill="#f1f5f9" font-size="28" font-weight="bold" font-family="sans-serif">0</text><text x="0" y="20" text-anchor="middle" fill="#64748b" font-size="11" font-family="monospace" letter-spacing="1">Stars</text></g><g class="metric-cell" transform="translate(425.0,95)"><g transform="translate(-8,-30)"><svg viewBox="0 0 16 16" width="16" height="16" fill="#a78bfa" class="metric-icon" style="animation-delay:0.6s"><path d="M5 3.254V3.25v.005a.75.75 0 1 1 0-.005zm6.5 8a.75.75 0 1 1 0 1.5.75.75 0 0 1 0-1.5zM5 12.75a.75.75 0 1 1 0 1.5.75.75 0 0 1 0-1.5zm-1.5.75a1.5 1.5 0 1 0 1.5 1.5v-8.5a1.5 1.5 0 1 0-1.5-1.5v8.5a1.5 1.5 0 0 0 0 0zm8.5-2.5a1.5 1.5 0 0 0-1.5 1.5 1.5 1.5 0 1 0 3 0v-3.133l.025-.05A3.252 3.252 0 0 0 11 5.25V3.5h1.25a.75.75 0 0 0 .53-1.28l-2-2a.75.75 0 0 0-1.06 0l-2 2A.75.75 0 0 0 8.25 3.5H9.5v1.75a1.75 1.75 0 0 0 1.75 1.75h.244a1.75 1.75 0 0 1 1.006.319V11a1.5 1.5 0 0 0-1.5-1.5z"/></svg></g><text x="0" y="2" text-anchor="middle" fill="#a78bfa" font-size="28" font-weight="bold" font-family="sans-serif" opacity="0.35" filter="url(#xdf01081)">0</text><text x="0" y="2" text-anchor="middle" fill="#f1f5f9" font-size="28" font-weight="bold" font-family="sans-serif">0</text><text x="0" y="20" text-anchor="middle" fill="#64748b" font-size="11" font-family="monospace" letter-spacing="1">PRs</text></g><g class="metric-cell" transform="translate(595.0,95)"><g transform="translate(-8,-30)"><svg viewBox="0 0 16 16" width="16" height="16" fill="#00d4ff" class="metric-icon" style="animation-delay:0.8999999999999999s"><path d="M8 9.5a1.5 1.5 0 1 0 0-3 1.5 1.5 0 0 0 0 3z"/><path d="M8 0a8 8 0 1 1 0 16A8 8 0 0 1 8 0zm0 1.5a6.5 6.5 0 1 0 0 13 6.5 6.5 0 0 0 0-13z"/></svg></g><text x="0" y="2" text-anchor="middle" fill="#00d4ff" font-size="28" font-weight="bold" font-family="sans-serif" opacity="0.35" filter="url(#xdf01081)">0</text><text x="0" y="2" text-anchor="middle" fill="#f1f5f9" font-size="28" font-weight="bold" font-family="sans-serif">0</text><text x="0" y="20" text-anchor="middle" fill="#64748b" font-size="11" font-family="monospace" letter-spacing="1">Issues</text></g><g class="metric-cell" transform="translate(765.0,95)"><g transform="translate(-8,-30)"><svg viewBox="0 0 16 16" width="16" height="16" fill="#a78bfa" class="metric-icon" style="animation-delay:1.2s"><path d="M2 2.5A2.5 2.5 0 0 1 4.5 0h8.75a.75.75 0 0 1 .75.75v12.5a.75.75 0 0 1-.75.75h-2.5a.75.75 0 0 1 0-1.5h1.75v-2h-8a1 1 0 0 0-.714 1.7.75.75 0 0 1-1.072 1.05A2.495 2.495 0 0 1 2 11.5zm10.5-1h-8a1 1 0 0 0-1 1v6.708A2.486 2.486 0 0 1 4.5 9h8zM5 12.25a.25.25 0 0 1 .25-.25h3.5a.25.25 0 0 1 .25.25v3.25a.25.25 0 0 1-.4.2l-1.45-1.087a.25.25 0 0 0-.3 0L5.4 15.7a.25.25 0 0 1-.4-.2z"/></svg></g><text x="0" y="2" text-anchor="middle" fill="#a78bfa" font-size="28" font-weight="bold" font-family="sans-serif" opacity="0.35" filter="url(#xdf01081)">0</text><text x="0" y="2" text-anchor="middle" fill="#f1f5f9" font-size="28" font-weight="bold" font-family="sans-serif">0</text><text x="0" y="20" text-anchor="middle" fill="#64748b" font-size="11" font-family="monospace" letter-spacing="1">Repos</text></g></svg>