<svg xmlns="http://www.w3.org/2000/svg" width="850" height="180" viewBox="0 0 850 180"><defs><style>.metric-icon{animation:count-glow 4s ease-in-out infinite}@keyframes count-glow{0%,100%{fill-opacity:0.7}50%{fill-opacity:1}}.star-bg{animation:twinkle-slow 7s ease-in-out infinite}.star-mid{animation:twinkle-mid 5s ease-in-out infinite}.star-fg{animation:twinkle-fast 3s ease-in-out infinite}@keyframes twinkle-slow{0%,100%{opacity:0.07}50%{opacity:0.30}}@keyframes twinkle-mid{0%,100%{opacity:0.12}50%{opacity:0.45}}@keyframes twinkle-fast{0%,100%{opacity:0.25}50%{opacity:0.65}}.shooting-star{opacity:0;animation:shoot linear infinite}@keyframes shoot{0%{opacity:0;transform:translate(0,0)}5%{opacity:0.9}15%{opacity:0.6;transform:translate(var(--shoot-tx),var(--shoot-ty))}20%{opacity:0;transform:translate(var(--shoot-tx),var(--shoot-ty))}100%{opacity:0}}</style><filter id="xdf01081" x="-30%" y="-30%" width="160%" height="160%"><feGaussianBlur stdDeviation="3"/></filter><radialGradient id="xe7d3b8d" cx="50%" cy="50%" r="80%"><stop offset="0%" stop-color="#0f1623" stop-opacity="0.85"/><stop offset="100%" stop-color="#080c14" stop-opacity="0"/></radialGradient><linearGradient id="x743a279" x1="0" y1="0" x2="1" y2="0"><stop offset="0%" stop-color="#fff" stop-opacity="0.85"/><stop offset="100%" stop-color="#fff" stop-opacity="0"/></linearGradient></defs><rect x="0" y="0" width="850" height="180" rx="14" ry="14" fill="#080c14"/><rect x="0" y="0" width="850" height="180" rx="14" ry="14" fill="url(#xe7d3b8d)"/><circle cx="461.4" cy="118.0" r="0.59" fill="#fff" opacity="0.20" class="star-bg" style="animation-duration:7.023s;animation-delay:2.475s"/><circle cx="264.6" cy="87.8" r="0.48" fill="#a78bfa" opacity="0.20" class="star-bg" style="animation-duration:5.620s;animation-delay:5.015s"/><circle cx="259.7" cy="136.7" r="0.77" fill="#00d4ff" opacity="0.10" class="star-bg" style="animation-duration:8.278s;animation-delay:2.102s"/><circle cx="397.9" cy="144.4" r="0.32" fill="#fff" opacity="0.19" class="star-bg" style="animation-duration:6.965s;animation-delay:0.967s"/><circle cx="330.7" cy="152.2" r="0.31" fill="#fff" opacity="0.21" class="star-bg" style="animation-duration:7.744s;animation-delay:0.494s"/><circle cx="707.8" cy="93.3" r="0.55" fill="#a78bfa" opacity="0.25" class="star-bg" style="animation-duration:5.512s;animation-delay:3.223s"/><circle cx="453.9" cy="93.7" r="0.64" fill="#00d4ff" opacity="0.16" class="star-bg" style="animation-duration:6.637s;animation-delay:1.961s"/><circle cx="646.9" cy="19.7" r="0.80" fill="#ffb020" opacity="0.09" class="star-bg" style="animation-duration:8.079s;animation-delay:4.846s"/><circle cx="745.6" cy="32.3" r="0.66" fill="#ffb020" opacity="0.15" class="star-bg" style="animation-duration:7.143s;animation-delay:2.011s"/><circle cx="288.0" cy="45.7" r="0.75" fill="#00d4ff" opacity="0.19" class="star-bg" style="animation-duration:8.600s;animation-delay:4.893s"/><circle cx="147.7" cy="160.0" r="0.30" fill="#ffb020" opacity="0.11" class="star-bg" style="animation-duration:7.527s;animation-delay:3.547s"/><circle cx="493.2" cy="79.8" r="0.71" fill="#a78bfa" opacity="0.23" class="star-bg" style="animation-duration:5.869s;animation-delay:5.161s"/><circle cx="823.7" cy="102.0" r="0.66" fill="#00d4ff" opacity="0.12" class="star-bg" style="animation-duration:7.380s;animation-delay:2.837s"/><circle cx="411.1" cy="50.6" r="0.77" fill="#a78bfa" opacity="0.14" class="star-bg" style="animation-duration:5.078s;animation-delay:4.519s"/><circle cx="783.5" cy="26.0" r="0.42" fill="#00d4ff" opacity="0.14" class="star-bg" style="animation-duration:5.033s;animation-delay:4.895s"/><circle cx="229.4" cy="70.1" r="0.63" fill="#fff" opacity="0.25" class="star-bg" style="animation-duration:8.798s;animation-delay:7.393s"/><circle cx="151.0" cy="108.5" r="0.45" fill="#fff" opacity="0.16" class="star-bg" style="animation-duration:5.221s;animation-delay:1.643s"/><circle cx="234.1" cy="13.0" r="0.88" fill="#fff" opacity="0.22" class="star-bg" style="animation-duration:7.661s;animation-delay:6.996s"/><circle cx="320.5" cy="163.1" r="0.31" fill="#fff" opacity="0.21" class="star-bg" style="animation-duration:5.531s;animation-delay:3.188s"/><circle cx="10.9" cy="74.5" r="0.86" fill="#fff" opacity="0.19" class="star-bg" style="animation-duration:8.776s;animation-delay:2.808s"/><circle cx="423.3" cy="98.0" r="0.35" fill="#fff" opacity="0.18" class="star-bg" style="animation-duration:8.701s;animation-delay:5.968s"/><circle cx="530.0" cy="147.7" r="0.37" fill="#ffb020" opacity="0.26" class="star-bg" style="animation-duration:5.043s;animation-delay:2.159s"/><circle cx="814.7" cy="61.8" r="0.68" fill="#00d4ff" opacity="0.07" class="star-bg" style="animation-duration:5.775s;animation-delay:5.761s"/><circle cx="605.7" cy="108.9" r="0.22" fill="#fff" opacity="0.17" class="star-bg" style="animation-duration:5.690s;animation-delay:0.290s"/><circle cx="521.8" cy="141.6" r="0.27" fill="#ffb020" opacity="0.17" class="star-bg" style="animation-duration:6.237s;animation-delay:0.099s"/><circle cx="336.8" cy="25.4" r="0.51" fill="#fff" opacity="0.12" class="star-bg" style="animation-duration:8.699s;animation-delay:1.250s"/><circle cx="771.5" cy="125.4" r="0.20" fill="#fff" opacity="0.27" class="star-bg" style="animation-duration:6.401s;animation-delay:6.315s"/><circle cx="352.9" cy="116.8" r="0.33" fill="#fff" opacity="0.20" class="star-bg" style="animation-duration:7.957s;animation-delay:4.108s"/><circle cx="431.2" cy="16.5" r="0.75" fill="#00d4ff" opacity="0.16" class="star-bg" style="animation-duration:6.385s;animation-delay:4.636s"/><circle cx="153.1" cy="23.6" r="0.82" fill="#fff" opacity="0.27" class="star-bg" style="animation-duration:5.075s;animation-delay:4.119s"/><circle cx="322.2" cy="142.2" r="0.56" fill="#ffb020" opacity="0.26" class="star-bg" style="animation-duration:6.261s;animation-delay:2.770s"/><circle cx="320.2" cy="98.2" r="0.87" fill="#fff" opacity="0.18" class="star-bg" style="animation-duration:5.398s;animation-delay:3.519s"/><circle cx="204.6" cy="153.7" r="0.59" fill="#fff" opacity="0.11" class="star-bg" style="animation-duration:6.063s;animation-delay:5.110s"/><circle cx="830.2" cy="169.0" r="0.62" fill="#00d4ff" opacity="0.24" class="star-bg" style="animation-duration:8.551s;animation-delay:3.391s"/><circle cx="681.3" cy="169.4" r="0.85" fill="#fff" opacity="0.29" class="star-bg" style="animation-duration:5.505s;animation-delay:0.494s"/><circle cx="389.2" cy="27.6" r="0.41" fill="#00d4ff" opacity="0.12" class="star-bg" style="animation-duration:6.235s;animation-delay:0.547s"/><circle cx="392.6" cy="78.7" r="0.19" fill="#00d4ff" opacity="0.20" class="star-bg" style="animation-duration:8.875s;animation-delay:5.246s"/><circle cx="131.1" cy="150.1" r="0.72" fill="#ffb020" opacity="0.29" class="star-bg" style="animation-duration:7.169s;animation-delay:1.681s"/><circle cx="283.7" cy="161.3" r="0.83" fill="#fff" opacity="0.18" class="star-bg" style="animation-duration:5.711s;animation-delay:1.161s"/><circle cx="137.9" cy="85.6" r="0.77" fill="#ffb020" opacity="0.18" class="star-bg" style="animation-duration:5.735s;animation-delay:1.763s"/><circle cx="523.2" cy="12.9" r="1.19" fill="#a78bfa" opacity="0.20" class="star-mid" style="animation-duration:6.944s;animation-delay:1.899s"/><circle cx="772.2" cy="88.8" r="0.83" fill="#ffb020" opacity="0.31" class="star-mid" style="animation-duration:4.569s;animation-delay:1.403s"/><circle cx="786.3" cy="121.9" r="0.74" fill="#fff" opacity="0.31" class="star-mid" style="animation-duration:5.520s;animation-delay:2.165s"/><circle cx="353.0" cy="129.6" r="0.98" fill="#00d4ff" opacity="0.30" class="star-mid" style="animation-duration:6.760s;animation-delay:3.772s"/><circle cx="609.2" cy="51.6" r="1.00" fill="#ffb020" opacity="0.32" class="star-mid" style="animation-duration:5.178s;animation-delay:3.284s"/><circle cx="164.6" cy="46.4" r="0.48" fill="#00d4ff" opacity="0.22" class="star-mid" style="animation-duration:6.963s;animation-delay:2.225s"/><circle cx="205.9" cy="94.7" r="0.86" fill="#ffb020" opacity="0.28" class="star-mid" style="animation-duration:6.553s;animation-delay:2.845s"/><circle cx="30.9" cy="84.3" r="0.95" fill="#a78bfa" opacity="0.13" class="star-mid" style="animation-duration:6.942s;animation-delay:3.456s"/><circle cx="60.7" cy="44.1" r="0.60" fill="#a78bfa" opacity="0.21" class="star-mid" style="animation-duration:6.447s;animation-delay:6.104s"/><circle cx="219.8" cy="132.8" r="0.83" fill="#ffb020" opacity="0.40" class="star-mid" style="animation-duration:5.636s;animation-delay:5.162s"/><circle cx="44.1" cy="163.8" r="0.86" fill="#fff" opacity="0.19" class="star-mid" style="animation-duration:6.426s;animation-delay:5.856s"/><circle cx="576.4" cy="12.1" r="0.99" fill="#00d4ff" opacity="0.25" class="star-mid" style="animation-duration:4.339s;animation-delay:0.646s"/><circle cx="360.7" cy="128.2" r="1.18" fill="#fff" opacity="0.23" class="star-mid" style="animation-duration:3.731s;animation-delay:2.729s"/><circle cx="214.3" cy="149.3" r="1.10" fill="#ffb020" opacity="0.34" class="star-mid" style="animation-duration:6.900s;animation-delay:5.711s"/><circle cx="90.3" cy="19.3" r="1.03" fill="#fff" opacity="0.31" class="star-mid" style="animation-duration:5.273s;animation-delay:2.680s"/><circle cx="649.4" cy="134.3" r="1.17" fill="#fff" opacity="0.20" class="star-mid" style="animation-duration:5.942s;animation-delay:5.742s"/><circle cx="458.9" cy="145.1" r="1.03" fill="#ffb020" opacity="0.27" class="star-mid" style="animation-duration:5.305s;animation-delay:4.392s"/><circle cx="282.7" cy="112.0" r="0.49" fill="#fff" opacity="0.16" class="star-mid" style="animation-duration:4.109s;animation-delay:2.196s"/><circle cx="736.7" cy="52.1" r="0.58" fill="#fff" opacity="0.20" class="star-mid" style="animation-duration:5.893s;animation-delay:3.686s"/><circle cx="654.6" cy="148.5" r="0.91" fill="#00d4ff" opacity="0.28" class="star-mid" style="animation-duration:6.207s;animation-delay:1.384s"/><circle cx="327.0" cy="137.1" r="0.96" fill="#fff" opacity="0.22" class="star-mid" style="animation-duration:3.603s;animation-delay:1.292s"/><circle cx="816.7" cy="165.7" r="0.93" fill="#ffb020" opacity="0.45" class="star-mid" style="animation-duration:5.230s;animation-delay:0.384s"/><circle cx="397.8" cy="150.8" r="1.15" fill="#a78bfa" opacity="0.34" class="star-mid" style="animation-duration:6.176s;animation-delay:3.311s"/><circle cx="160.6" cy="30.9" r="0.62" fill="#fff" opacity="0.18" class="star-mid" style="animation-duration:6.972s;animation-delay:2.400s"/><circle cx="183.3" cy="46.9" r="0.49" fill="#fff" opacity="0.41" class="star-mid" style="animation-duration:6.364s;animation-delay:3.283s"/><circle cx="213.5" cy="51.6" r="1.19" fill="#a78bfa" opacity="0.34" class="star-fg" style="animation-duration:4.493s;animation-delay:2.642s"/><circle cx="427.6" cy="22.6" r="0.75" fill="#fff" opacity="0.43" class="star-fg" style="animation-duration:2.433s;animation-delay:1.978s"/><circle cx="633.5" cy="26.8" r="1.38" fill="#a78bfa" opacity="0.59" class="star-fg" style="animation-duration:3.135s;animation-delay:2.263s"/><circle cx="88.1" cy="53.3" r="1.17" fill="#a78bfa" opacity="0.42" class="star-fg" style="animation-duration:2.203s;animation-delay:1.215s"/><circle cx="692.4" cy="76.3" r="0.93" fill="#00d4ff" opacity="0.62" class="star-fg" style="animation-duration:2.436s;animation-delay:0.574s"/><circle cx="458.1" cy="33.6" r="0.93" fill="#00d4ff" opacity="0.40" class="star-fg" style="animation-duration:2.589s;animation-delay:0.369s"/><circle cx="836.8" cy="109.4" r="0.90" fill="#a78bfa" opacity="0.44" class="star-fg" style="animation-duration:2.071s;animation-delay:0.262s"/><circle cx="174.8" cy="47.5" r="1.37" fill="#fff" opacity="0.47" class="star-fg" style="animation-duration:2.362s;animation-delay:1.903s"/><circle cx="550.1" cy="79.0" r="0.82" fill="#fff" opacity="0.55" class="star-fg" style="animation-duration:2.295s;animation-delay:1.192s"/><circle cx="186.4" cy="58.5" r="0.89" fill="#fff" opacity="0.56" class="star-fg" style="animation-duration:2.465s;animation-delay:1.573s"/><line x1="679" y1="76" x2="697" y2="81" stroke="url(#x743a279)" stroke-width="1.1" stroke-linecap="round" class="shooting-star" style="animation-delay:4.83s;--shoot-tx:102px;--shoot-ty:44px;animation-duration:2.2s"/><line x1="252" y1="43" x2="270" y2="48" stroke="url(#x743a279)" stroke-width="1.1" stroke-linecap="round" class="shooting-star" style="animation-delay:36.42s;--shoot-tx:99px;--shoot-ty:46px;animation-duration:2.6s"/><line x1="234" y1="83" x2="252" y2="88" stroke="url(#x743a279)" stroke-width="1.1" stroke-linecap="round" class="shooting-star" style="animation-delay:24.03s;--shoot-tx:86px;--shoot-ty:29px;animation-duration:2.65s"/><line x1="170.0" y1="55" x2="170.0" y2="155" stroke="#1a2332" stroke-width="1" opacity="0.5"/><line x1="340.0" y1="55" x2="340.0" y2="155" stroke="#1a2332" stroke-width="1" opacity="0.5"/><line x1="510.0" y1="55" x2="510.0" y2="155" stroke="#1a2332" stroke-width="1" opacity="0.5"/><line x1="680.0" y1="55" x2="680.0" y2="155" stroke="#1a2332" stroke-width="1" opacity="0.5"/><g class="metric-cell" transform="translate(85.0,95)"><g transform="translate(-8,-30)"><svg viewBox="0 0 16 16" width="16" height="16" fill="#00d4ff" class="metric-icon" style="animation-delay:0.0s"><path d="M8 1a7 7 0 1 0 0 14A7 7 0 0 0 8 1zm0 2.5a4.5 4.5 0 0 1 4.473 4H14.5a.5.5 0 0 1 0 1h-2.027A4.5 4.5 0 0 1 8 12.5a4.5 4.5 0 0 1-4.473-4H1.5a.5.5 0 0 1 0-1h2.027A4.5 4.5 0 0 1 8 3.5zm0 1.5a3 3 0 1 0 0 6 3 3 0 0 0 0-6z"/></svg></g><text x="0" y="2" text-anchor="middle" fill="#00d4ff" font-size="28" font-weight="bold" font-family="sans-serif" opacity="0.35" filter="url(#xdf01081)">570</text><text x="0" y="2" text-anchor="middle" fill="#f1f5f9" font-size="28" font-weight="bold" font-family="sans-serif">570</text><text x="0" y="20" text-anchor="middle" fill="#64748b" font-size="11" font-family="monospace" letter-spacing="1">Commits</text></g><g class="metric-cell" transform="translate(255.0,95)"><g transform="translate(-8,-30)"><svg viewBox="0 0 16 16" width="16" height="16" fill="#ffb020" class="metric-icon" style="animation-delay:0.3s"><path d="M8 .25a.75.75 0 0 1 .673.418l1.882 3.815 4.21.612a.75.75 0 0 1 .416 1.279l-3.046 2.97.719 4.192a.75.75 0 0 1-1.088.791L8 12.347l-3.766 1.98a.75.75 0 0 1-1.088-.79l.72-4.194L.818 6.374a.75.75 0 0 1 .416-1.28l4.21-.611L7.327.668A.75.75 0 0 1 8 .25z"/></svg></g><text x="0" y="2" text-anchor="middle" fill="#ffb020" font-size="28" font-weight="bold" font-family="sans-serif" opacity="0.35" filter="url(#xdf01081)">203</text><text x="0" y="2" text-anchor="middle" fill="#f1f5f9" font-size="28" font-weight="bold" font-family="sans-serif">203</text><text x="0" y="20" text-anchor="middle" fill="#64748b" font-size="11" font-family="monospace" letter-spacing="1">Stars</text></g><g class="metric-cell" transform="translate(425.0,95)"><g transform="translate(-8,-30)"><svg viewBox="0 0 16 16" width="16" height="16" fill="#a78bfa" class="metric-icon" style="animation-delay:0.6s"><path d="M5 3.254V3.25v.005a.75.75 0 1 1 0-.005zm6.5 8a.75.75 0 1 1 0 1.5.75.75 0 0 1 0-1.5zM5 12.75a.75.75 0 1 1 0 1.5.75.75 0 0 1 0-1.5zm-1.5.75a1.5 1.5 0 1 0 1.5 1.5v-8.5a1.5 1.5 0 1 0-1.5-1.5v8.5a1.5 1.5 0 0 0 0 0zm8.5-2.5a1.5 1.5 0 0 0-1.5 1.5 1.5 1.5 0 1 0 3 0v-3.133l.025-.05A3.252 3.252 0 0 0 11 5.25V3.5h1.25a.75.75 0 0 0 .53-1.28l-2-2a.75.75 0 0 0-1.06 0l-2 2A.75.75 0 0 0 8.25 3.5H9.5v1.75a1.75 1.75 0 0 0 1.75 1.75h.244a1.75 1.75 0 0 1 1.006.319V11a1.5 1.5 0 0 0-1.5-1.5z"/></svg></g><text x="0" y="2" text-anchor="middle" fill="#a78bfa" font-size="28" font-weight="bold" font-family="sans-serif" opacity="0.35" filter="url(#xdf01081)">3</text><text x="0" y="2" text-anchor="middle" fill="#f1f5f9" font-size="28" font-weight="bold" font-family="sans-serif">3</text><text x="0" y="20" text-anchor="middle" fill="#64748b" font-size="11" font-family="monospace" letter-spacing="1">PRs</text></g><g class="metric-cell" transform="translate(595.0,95)"><g transform="translate(-8,-30)"><svg viewBox="0 0 16 16" width="16" height="16" fill="#00d4ff" class="metric-icon" style="animation-delay:0.8999999999999999s"><path d="M8 9.5a1.5 1.5 0 1 0 0-3 1.5 1.5 0 0 0 0 3z"/><path d="M8 0a8 8 0 1 1 0 16A8 8 0 0 1 8 0zm0 1.5a6.5 6.5 0 1 0 0 13 6.5 6.5 0 0 0 0-13z"/></svg></g><text x="0" y="2" text-anchor="middle" fill="#00d4ff" font-size="28" font-weight="bold" font-family="sans-serif" opacity="0.35" filter="url(#xdf01081)">5</text><text x="0" y="2" text-anchor="middle" fill="#f1f5f9" font-size="28" font-weight="bold" font-family="sans-serif">5</text><text x="0" y="20" text-anchor="middle" fill="#64748b" font-size="11" font-family="monospace" letter-spacing="1">Issues</text></g><g class="metric-cell" transform="translate(765.0,95)"><g transform="translate(-8,-30)"><svg viewBox="0 0 16 16" width="16" height="16" fill="#a78bfa" class="metric-icon" style="animation-delay:1.2s"><path d="M2 2.5A2.5 2.5 0 0 1 4.5 0h8.75a.75.75 0 0 1 .75.75v12.5a.75.75 0 0 1-.75.75h-2.5a.75.75 0 0 1 0-1.5h1.75v-2h-8a1 1 0 0 0-.714 1.7.75.75 0 0 1-1.072 1.05A2.495 2.495 0 0 1 2 11.5zm10.5-1h-8a1 1 0 0 0-1 1v6.708A2.486 2.486 0 0 1 4.5 9h8zM5 12.25a.25.25 0 0 1 .25-.25h3.5a.25.25 0 0 1 .25.25v3.25a.25.25 0 0 1-.4.2l-1.45-1.087a.25.25 0 0 0-.3 0L5.4 15.7a.25.25 0 0 1-.4-.2z"/></svg></g><text x="0" y="2" text-anchor="middle" fill="#a78bfa" font-size="28" font-weight="bold" font-family="sans-serif" opacity="0.35" filter="url(#xdf01081)">29</text><text x="0" y="2" text-anchor="middle" fill="#f1f5f9" font-size="28" font-weight="bold" font-family="sans-serif">29</text><text x="0" y="20" text-anchor="middle" fill="#64748b" font-size="11" font-family="monospace" letter-spacing="1">Repos</text></g></svg>