<svg xmlns="http://www.w3.org/2000/svg" width="850" height="180" viewBox="0 0 850 180"><defs><style>.metric-icon{animation:count-glow 4s ease-in-out infinite}@keyframes count-glow{0%,100%{fill-opacity:0.7}50%{fill-opacity:1}}.star-bg{animation:twinkle-slow 7s ease-in-out infinite}.star-mid{animation:twinkle-mid 5s ease-in-out infinite}.star-fg{animation:twinkle-fast 3s ease-in-out infinite}@keyframes twinkle-slow{0%,100%{opacity:0.07}50%{opacity:0.30}}@keyframes twinkle-mid{0%,100%{opacity:0.12}50%{opacity:0.45}}@keyframes twinkle-fast{0%,100%{opacity:0.25}50%{opacity:0.65}}.shooting-star{opacity:0;animation:shoot linear infinite}@keyframes shoot{0%{opacity:0;transform:translate(0,0)}5%{opacity:0.9}15%{opacity:0.6;transform:translate(var(--shoot-tx),var(--shoot-ty))}20%{opacity:0;transform:translate(var(--shoot-tx),var(--shoot-ty))}100%{opacity:0}}</style><filter id="xdf01081" x="-30%" y="-30%" width="160%" height="160%"><feGaussianBlur stdDeviation="3"/></filter><radialGradient id="xe7d3b8d" cx="50%" cy="50%" r="80%"><stop offset="0%" stop-color="#0f1623" stop-opacity="0.85"/><stop offset="100%" stop-color="#080c14" stop-opacity="0"/></radialGradient><linearGradient id="x743a279" x1="0" y1="0" x2="1" y2="0"><stop offset="0%" stop-color="#fff" stop-opacity="0.85"/><stop offset="100%" stop-color="#fff" stop-opacity="0"/></linearGradient></defs><rect x="0" y="0" width="850" height="180" rx="14" ry="14" fill="#080c14"/><rect x="0" y="0" width="850" height="180" rx="14" ry="14" fill="url(#xe7d3b8d)"/><circle cx="378.6" cy="45.3" r="0.30" fill="#fff" opacity="0.14" class="star-bg" style="animation-duration:5.265s;animation-delay:2.916s"/><circle cx="592.8" cy="132.3" r="0.82" fill="#ffb020" opacity="0.07" class="star-bg" style="animation-duration:6.963s;animation-delay:1.086s"/><circle cx="107.9" cy="37.5" r="0.47" fill="#a78bfa" opacity="0.22" class="star-bg" style="animation-duration:8.602s;animation-delay:0.200s"/><circle cx="279.2" cy="82.3" r="0.36" fill="#fff" opacity="0.22" class="star-bg" style="animation-duration:5.791s;animation-delay:4.425s"/><circle cx="148.7" cy="20.4" r="0.62" fill="#fff" opacity="0.22" class="star-bg" style="animation-duration:5.298s;animation-delay:3.496s"/><circle cx="144.3" cy="121.2" r="0.87" fill="#fff" opacity="0.23" class="star-bg" style="animation-duration:5.580s;animation-delay:4.488s"/><circle cx="291.3" cy="105.1" r="0.49" fill="#fff" opacity="0.10" class="star-bg" style="animation-duration:5.858s;animation-delay:3.703s"/><circle cx="505.8" cy="15.1" r="0.24" fill="#fff" opacity="0.13" class="star-bg" style="animation-duration:5.525s;animation-delay:0.422s"/><circle cx="564.3" cy="50.5" r="0.31" fill="#00d4ff" opacity="0.19" class="star-bg" style="animation-duration:8.617s;animation-delay:3.844s"/><circle cx="409.4" cy="91.6" r="0.75" fill="#fff" opacity="0.20" class="star-bg" style="animation-duration:8.222s;animation-delay:7.374s"/><circle cx="199.0" cy="124.2" r="0.82" fill="#fff" opacity="0.16" class="star-bg" style="animation-duration:8.431s;animation-delay:3.021s"/><circle cx="635.7" cy="24.5" r="0.58" fill="#fff" opacity="0.12" class="star-bg" style="animation-duration:8.904s;animation-delay:8.562s"/><circle cx="24.8" cy="39.7" r="0.66" fill="#00d4ff" opacity="0.23" class="star-bg" style="animation-duration:5.662s;animation-delay:1.272s"/><circle cx="461.2" cy="19.1" r="0.74" fill="#ffb020" opacity="0.18" class="star-bg" style="animation-duration:5.064s;animation-delay:2.316s"/><circle cx="490.0" cy="12.4" r="0.33" fill="#a78bfa" opacity="0.07" class="star-bg" style="animation-duration:5.498s;animation-delay:2.886s"/><circle cx="115.8" cy="15.4" r="0.52" fill="#ffb020" opacity="0.28" class="star-bg" style="animation-duration:7.429s;animation-delay:4.810s"/><circle cx="615.3" cy="148.8" r="0.47" fill="#a78bfa" opacity="0.22" class="star-bg" style="animation-duration:8.198s;animation-delay:5.536s"/><circle cx="643.9" cy="93.6" r="0.33" fill="#fff" opacity="0.16" class="star-bg" style="animation-duration:5.695s;animation-delay:1.176s"/><circle cx="625.1" cy="114.1" r="0.45" fill="#00d4ff" opacity="0.21" class="star-bg" style="animation-duration:5.194s;animation-delay:2.250s"/><circle cx="213.5" cy="31.5" r="0.58" fill="#fff" opacity="0.19" class="star-bg" style="animation-duration:8.324s;animation-delay:2.191s"/><circle cx="484.8" cy="69.9" r="0.25" fill="#fff" opacity="0.15" class="star-bg" style="animation-duration:7.414s;animation-delay:5.000s"/><circle cx="657.3" cy="37.2" r="0.72" fill="#a78bfa" opacity="0.25" class="star-bg" style="animation-duration:6.375s;animation-delay:4.646s"/><circle cx="321.1" cy="43.7" r="0.34" fill="#a78bfa" opacity="0.18" class="star-bg" style="animation-duration:7.429s;animation-delay:1.783s"/><circle cx="266.0" cy="74.4" r="0.67" fill="#fff" opacity="0.24" class="star-bg" style="animation-duration:7.831s;animation-delay:2.170s"/><circle cx="392.7" cy="90.0" r="0.78" fill="#a78bfa" opacity="0.25" class="star-bg" style="animation-duration:7.870s;animation-delay:2.992s"/><circle cx="63.6" cy="104.4" r="0.29" fill="#00d4ff" opacity="0.20" class="star-bg" style="animation-duration:6.595s;animation-delay:0.526s"/><circle cx="543.6" cy="124.7" r="0.71" fill="#a78bfa" opacity="0.19" class="star-bg" style="animation-duration:7.283s;animation-delay:2.990s"/><circle cx="687.6" cy="109.4" r="0.53" fill="#00d4ff" opacity="0.24" class="star-bg" style="animation-duration:8.582s;animation-delay:0.670s"/><circle cx="151.3" cy="159.6" r="0.70" fill="#fff" opacity="0.28" class="star-bg" style="animation-duration:5.659s;animation-delay:0.421s"/><circle cx="540.9" cy="80.2" r="0.33" fill="#fff" opacity="0.27" class="star-bg" style="animation-duration:6.159s;animation-delay:2.389s"/><circle cx="671.2" cy="16.6" r="0.76" fill="#ffb020" opacity="0.22" class="star-bg" style="animation-duration:5.215s;animation-delay:2.544s"/><circle cx="138.5" cy="91.8" r="0.58" fill="#fff" opacity="0.30" class="star-bg" style="animation-duration:6.450s;animation-delay:5.527s"/><circle cx="521.1" cy="28.1" r="0.48" fill="#fff" opacity="0.18" class="star-bg" style="animation-duration:6.807s;animation-delay:0.110s"/><circle cx="259.1" cy="123.8" r="0.40" fill="#00d4ff" opacity="0.10" class="star-bg" style="animation-duration:6.778s;animation-delay:5.763s"/><circle cx="306.2" cy="127.6" r="0.41" fill="#fff" opacity="0.17" class="star-bg" style="animation-duration:6.635s;animation-delay:1.138s"/><circle cx="96.2" cy="144.7" r="0.70" fill="#fff" opacity="0.22" class="star-bg" style="animation-duration:7.253s;animation-delay:6.252s"/><circle cx="237.6" cy="126.4" r="0.66" fill="#ffb020" opacity="0.22" class="star-bg" style="animation-duration:6.592s;animation-delay:5.698s"/><circle cx="641.2" cy="133.1" r="0.51" fill="#ffb020" opacity="0.14" class="star-bg" style="animation-duration:7.884s;animation-delay:7.704s"/><circle cx="806.3" cy="121.9" r="0.44" fill="#ffb020" opacity="0.08" class="star-bg" style="animation-duration:5.919s;animation-delay:2.789s"/><circle cx="474.3" cy="37.4" r="0.45" fill="#fff" opacity="0.21" class="star-bg" style="animation-duration:7.823s;animation-delay:6.855s"/><circle cx="400.8" cy="84.7" r="0.40" fill="#fff" opacity="0.13" class="star-mid" style="animation-duration:3.565s;animation-delay:2.598s"/><circle cx="270.1" cy="131.1" r="1.08" fill="#fff" opacity="0.28" class="star-mid" style="animation-duration:4.365s;animation-delay:2.212s"/><circle cx="693.0" cy="82.2" r="0.56" fill="#fff" opacity="0.29" class="star-mid" style="animation-duration:3.676s;animation-delay:2.183s"/><circle cx="198.9" cy="15.9" r="0.97" fill="#a78bfa" opacity="0.25" class="star-mid" style="animation-duration:5.953s;animation-delay:0.436s"/><circle cx="279.2" cy="52.2" r="0.62" fill="#a78bfa" opacity="0.20" class="star-mid" style="animation-duration:4.672s;animation-delay:2.277s"/><circle cx="583.2" cy="169.0" r="0.81" fill="#fff" opacity="0.37" class="star-mid" style="animation-duration:5.639s;animation-delay:0.485s"/><circle cx="751.4" cy="12.6" r="1.02" fill="#00d4ff" opacity="0.44" class="star-mid" style="animation-duration:4.501s;animation-delay:1.925s"/><circle cx="548.4" cy="16.3" r="1.10" fill="#a78bfa" opacity="0.43" class="star-mid" style="animation-duration:5.380s;animation-delay:3.147s"/><circle cx="726.4" cy="19.7" r="0.50" fill="#fff" opacity="0.38" class="star-mid" style="animation-duration:4.073s;animation-delay:0.109s"/><circle cx="484.4" cy="93.1" r="0.91" fill="#fff" opacity="0.15" class="star-mid" style="animation-duration:6.317s;animation-delay:0.838s"/><circle cx="641.1" cy="90.5" r="0.58" fill="#fff" opacity="0.30" class="star-mid" style="animation-duration:6.157s;animation-delay:2.836s"/><circle cx="679.8" cy="149.4" r="1.20" fill="#ffb020" opacity="0.35" class="star-mid" style="animation-duration:5.255s;animation-delay:1.418s"/><circle cx="800.9" cy="122.9" r="0.72" fill="#ffb020" opacity="0.16" class="star-mid" style="animation-duration:5.151s;animation-delay:4.482s"/><circle cx="619.3" cy="140.0" r="0.60" fill="#fff" opacity="0.37" class="star-mid" style="animation-duration:5.859s;animation-delay:1.716s"/><circle cx="386.9" cy="163.6" r="0.42" fill="#fff" opacity="0.30" class="star-mid" style="animation-duration:6.454s;animation-delay:1.814s"/><circle cx="226.0" cy="29.9" r="0.74" fill="#fff" opacity="0.26" class="star-mid" style="animation-duration:5.894s;animation-delay:5.485s"/><circle cx="409.0" cy="131.4" r="0.81" fill="#fff" opacity="0.31" class="star-mid" style="animation-duration:3.628s;animation-delay:2.244s"/><circle cx="353.8" cy="142.9" r="1.07" fill="#fff" opacity="0.28" class="star-mid" style="animation-duration:4.779s;animation-delay:3.724s"/><circle cx="781.5" cy="134.9" r="0.60" fill="#fff" opacity="0.33" class="star-mid" style="animation-duration:6.781s;animation-delay:5.017s"/><circle cx="657.1" cy="93.8" r="0.55" fill="#a78bfa" opacity="0.44" class="star-mid" style="animation-duration:5.695s;animation-delay:2.174s"/><circle cx="499.2" cy="53.9" r="0.43" fill="#fff" opacity="0.18" class="star-mid" style="animation-duration:5.206s;animation-delay:4.892s"/><circle cx="653.9" cy="13.2" r="1.19" fill="#fff" opacity="0.39" class="star-mid" style="animation-duration:4.746s;animation-delay:2.015s"/><circle cx="682.4" cy="107.5" r="0.42" fill="#fff" opacity="0.34" class="star-mid" style="animation-duration:6.855s;animation-delay:3.335s"/><circle cx="748.1" cy="83.6" r="0.70" fill="#ffb020" opacity="0.14" class="star-mid" style="animation-duration:5.837s;animation-delay:3.457s"/><circle cx="64.0" cy="97.5" r="0.97" fill="#ffb020" opacity="0.16" class="star-mid" style="animation-duration:5.164s;animation-delay:1.249s"/><circle cx="820.7" cy="43.7" r="0.93" fill="#fff" opacity="0.58" class="star-fg" style="animation-duration:4.372s;animation-delay:3.497s"/><circle cx="357.9" cy="155.1" r="0.78" fill="#fff" opacity="0.28" class="star-fg" style="animation-duration:2.763s;animation-delay:1.111s"/><circle cx="256.7" cy="73.1" r="1.13" fill="#fff" opacity="0.56" class="star-fg" style="animation-duration:3.249s;animation-delay:1.263s"/><circle cx="123.2" cy="63.2" r="0.93" fill="#00d4ff" opacity="0.45" class="star-fg" style="animation-duration:3.896s;animation-delay:0.598s"/><circle cx="326.8" cy="141.3" r="0.89" fill="#a78bfa" opacity="0.53" class="star-fg" style="animation-duration:3.033s;animation-delay:0.020s"/><circle cx="171.5" cy="66.1" r="1.23" fill="#a78bfa" opacity="0.34" class="star-fg" style="animation-duration:3.368s;animation-delay:1.422s"/><circle cx="589.2" cy="86.9" r="0.94" fill="#fff" opacity="0.58" class="star-fg" style="animation-duration:2.560s;animation-delay:1.692s"/><circle cx="95.8" cy="23.0" r="1.05" fill="#a78bfa" opacity="0.43" class="star-fg" style="animation-duration:4.054s;animation-delay:2.301s"/><circle cx="721.4" cy="102.3" r="0.94" fill="#fff" opacity="0.28" class="star-fg" style="animation-duration:3.259s;animation-delay:2.239s"/><circle cx="646.8" cy="134.3" r="1.02" fill="#a78bfa" opacity="0.31" class="star-fg" style="animation-duration:3.874s;animation-delay:2.093s"/><line x1="583" y1="73" x2="601" y2="78" stroke="url(#x743a279)" stroke-width="1.1" stroke-linecap="round" class="shooting-star" style="animation-delay:54.98s;--shoot-tx:95px;--shoot-ty:35px;animation-duration:2.79s"/><line x1="317" y1="57" x2="335" y2="62" stroke="url(#x743a279)" stroke-width="1.1" stroke-linecap="round" class="shooting-star" style="animation-delay:2.61s;--shoot-tx:102px;--shoot-ty:38px;animation-duration:2.77s"/><line x1="104" y1="44" x2="122" y2="49" stroke="url(#x743a279)" stroke-width="1.1" stroke-linecap="round" class="shooting-star" style="animation-delay:52.0s;--shoot-tx:119px;--shoot-ty:52px;animation-duration:2.0s"/><line x1="170.0" y1="55" x2="170.0" y2="155" stroke="#1a2332" stroke-width="1" opacity="0.5"/><line x1="340.0" y1="55" x2="340.0" y2="155" stroke="#1a2332" stroke-width="1" opacity="0.5"/><line x1="510.0" y1="55" x2="510.0" y2="155" stroke="#1a2332" stroke-width="1" opacity="0.5"/><line x1="680.0" y1="55" x2="680.0" y2="155" stroke="#1a2332" stroke-width="1" opacity="0.5"/><g class="metric-cell" transform="translate(85.0,95)"><g transform="translate(-8,-30)"><svg viewBox="0 0 16 16" width="16" height="16" fill="#00d4ff" class="metric-icon" style="animation-delay:0.0s"><path d="M8 1a7 7 0 1 0 0 14A7 7 0 0 0 8 1zm0 2.5a4.5 4.5 0 0 1 4.473 4H14.5a.5.5 0 0 1 0 1h-2.027A4.5 4.5 0 0 1 8 12.5a4.5 4.5 0 0 1-4.473-4H1.5a.5.5 0 0 1 0-1h2.027A4.5 4.5 0 0 1 8 3.5zm0 1.5a3 3 0 1 0 0 6 3 3 0 0 0 0-6z"/></svg></g><text x="0" y="2" text-anchor="middle" fill="#00d4ff" font-size="28" font-weight="bold" font-family="sans-serif" opacity="0.35" filter="url(#xdf01081)">560</text><text x="0" y="2" text-anchor="middle" fill="#f1f5f9" font-size="28" font-weight="bold" font-family="sans-serif">560</text><text x="0" y="20" text-anchor="middle" fill="#64748b" font-size="11" font-family="monospace" letter-spacing="1">Commits</text></g><g class="metric-cell" transform="translate(255.0,95)"><g transform="translate(-8,-30)"><svg viewBox="0 0 16 16" width="16" height="16" fill="#ffb020" class="metric-icon" style="animation-delay:0.3s"><path d="M8 .25a.75.75 0 0 1 .673.418l1.882 3.815 4.21.612a.75.75 0 0 1 .416 1.279l-3.046 2.97.719 4.192a.75.75 0 0 1-1.088.791L8 12.347l-3.766 1.98a.75.75 0 0 1-1.088-.79l.72-4.194L.818 6.374a.75.75 0 0 1 .416-1.28l4.21-.611L7.327.668A.75.75 0 0 1 8 .25z"/></svg></g><text x="0" y="2" text-anchor="middle" fill="#ffb020" font-size="28" font-weight="bold" font-family="sans-serif" opacity="0.35" filter="url(#xdf01081)">199</text><text x="0" y="2" text-anchor="middle" fill="#f1f5f9" font-size="28" font-weight="bold" font-family="sans-serif">199</text><text x="0" y="20" text-anchor="middle" fill="#64748b" font-size="11" font-family="monospace" letter-spacing="1">Stars</text></g><g class="metric-cell" transform="translate(425.0,95)"><g transform="translate(-8,-30)"><svg viewBox="0 0 16 16" width="16" height="16" fill="#a78bfa" class="metric-icon" style="animation-delay:0.6s"><path d="M5 3.254V3.25v.005a.75.75 0 1 1 0-.005zm6.5 8a.75.75 0 1 1 0 1.5.75.75 0 0 1 0-1.5zM5 12.75a.75.75 0 1 1 0 1.5.75.75 0 0 1 0-1.5zm-1.5.75a1.5 1.5 0 1 0 1.5 1.5v-8.5a1.5 1.5 0 1 0-1.5-1.5v8.5a1.5 1.5 0 0 0 0 0zm8.5-2.5a1.5 1.5 0 0 0-1.5 1.5 1.5 1.5 0 1 0 3 0v-3.133l.025-.05A3.252 3.252 0 0 0 11 5.25V3.5h1.25a.75.75 0 0 0 .53-1.28l-2-2a.75.75 0 0 0-1.06 0l-2 2A.75.75 0 0 0 8.25 3.5H9.5v1.75a1.75 1.75 0 0 0 1.75 1.75h.244a1.75 1.75 0 0 1 1.006.319V11a1.5 1.5 0 0 0-1.5-1.5z"/></svg></g><text x="0" y="2" text-anchor="middle" fill="#a78bfa" font-size="28" font-weight="bold" font-family="sans-serif" opacity="0.35" filter="url(#xdf01081)">3</text><text x="0" y="2" text-anchor="middle" fill="#f1f5f9" font-size="28" font-weight="bold" font-family="sans-serif">3</text><text x="0" y="20" text-anchor="middle" fill="#64748b" font-size="11" font-family="monospace" letter-spacing="1">PRs</text></g><g class="metric-cell" transform="translate(595.0,95)"><g transform="translate(-8,-30)"><svg viewBox="0 0 16 16" width="16" height="16" fill="#00d4ff" class="metric-icon" style="animation-delay:0.8999999999999999s"><path d="M8 9.5a1.5 1.5 0 1 0 0-3 1.5 1.5 0 0 0 0 3z"/><path d="M8 0a8 8 0 1 1 0 16A8 8 0 0 1 8 0zm0 1.5a6.5 6.5 0 1 0 0 13 6.5 6.5 0 0 0 0-13z"/></svg></g><text x="0" y="2" text-anchor="middle" fill="#00d4ff" font-size="28" font-weight="bold" font-family="sans-serif" opacity="0.35" filter="url(#xdf01081)">5</text><text x="0" y="2" text-anchor="middle" fill="#f1f5f9" font-size="28" font-weight="bold" font-family="sans-serif">5</text><text x="0" y="20" text-anchor="middle" fill="#64748b" font-size="11" font-family="monospace" letter-spacing="1">Issues</text></g><g class="metric-cell" transform="translate(765.0,95)"><g transform="translate(-8,-30)"><svg viewBox="0 0 16 16" width="16" height="16" fill="#a78bfa" class="metric-icon" style="animation-delay:1.2s"><path d="M2 2.5A2.5 2.5 0 0 1 4.5 0h8.75a.75.75 0 0 1 .75.75v12.5a.75.75 0 0 1-.75.75h-2.5a.75.75 0 0 1 0-1.5h1.75v-2h-8a1 1 0 0 0-.714 1.7.75.75 0 0 1-1.072 1.05A2.495 2.495 0 0 1 2 11.5zm10.5-1h-8a1 1 0 0 0-1 1v6.708A2.486 2.486 0 0 1 4.5 9h8zM5 12.25a.25.25 0 0 1 .25-.25h3.5a.25.25 0 0 1 .25.25v3.25a.25.25 0 0 1-.4.2l-1.45-1.087a.25.25 0 0 0-.3 0L5.4 15.7a.25.25 0 0 1-.4-.2z"/></svg></g><text x="0" y="2" text-anchor="middle" fill="#a78bfa" font-size="28" font-weight="bold" font-family="sans-serif" opacity="0.35" filter="url(#xdf01081)">30</text><text x="0" y="2" text-anchor="middle" fill="#f1f5f9" font-size="28" font-weight="bold" font-family="sans-serif">30</text><text x="0" y="20" text-anchor="middle" fill="#64748b" font-size="11" font-family="monospace" letter-spacing="1">Repos</text></g></svg>